<?xml version="1.0" encoding="utf-8"?>
<!-- Generator: Adobe Illustrator 26.3.1, SVG Export Plug-In . SVG Version: 6.00 Build 0)  -->
<svg version="1.1" id="圖層_1" xmlns="http://www.w3.org/2000/svg" xmlns:xlink="http://www.w3.org/1999/xlink" x="0px" y="0px"
	 viewBox="0 0 42 42" style="enable-background:new 0 0 42 42;" xml:space="preserve">
<style type="text/css">
	.st0{opacity:0.7;}
	.st1{fill:#FFFFFF;}
</style>
<g class="st0">
	<path class="st1" d="M9.7,6.2C12,4,14,2,16.3-0.1c0.6,0.7,1.5,1.4,2.1,2.3c3.7,4.9,2.8,12-2,15.9c-4.7,3.9-11.7,3.4-15.9-1
		c-0.7-0.7-0.6-1.1,0-1.8c1.8-1.8,3.6-3.6,5.5-5.5c0.9,1.5,2,2.5,3.7,2c1.2-0.3,1.9-1.1,2.1-2.2C12.1,8,11.3,6.9,9.7,6.2z"/>
	<path class="st1" d="M9.6,36c1.6-0.9,2.5-1.9,2.1-3.6c-0.3-1.2-1-1.9-2.2-2.2c-1.6-0.3-2.7,0.5-3.5,2c-1.2-1.2-2.4-2.3-3.5-3.4
		c-0.7-0.6-1.3-1.4-2-2c-0.9-0.7-0.7-1.2,0-2c5.1-5.3,14.1-4.5,18.1,1.7c3.1,4.7,2.4,11-1.7,14.9c-0.7,0.6-1.1,0.7-1.8,0
		C13.5,39.7,11.6,38,9.6,36z"/>
	<path class="st1" d="M25.8,0C27.9,2,30,4,32.1,6.1C31,6.8,30,7.7,30.2,9.1c0.1,0.7,0.4,1.5,0.9,2c1.4,1.4,3.1,1,5-1.3
		c2,2,3.9,4,5.8,6c0.1,0.2-0.1,0.9-0.4,1.2c-3.9,4.2-10.4,4.9-15.2,1.6C20,14.2,19.7,4.3,25.8,0z"/>
	<path class="st1" d="M32.4,36.2c-2,2-4,3.8-6,5.7c-0.6,0.6-1,0-1.3-0.3c-3.6-3.3-4.7-8.8-2.7-13.3c3.4-7.5,13.4-9.2,19.1-3.3
		c0.7,0.7,0.7,1.2,0,1.9c-1.8,1.7-3.6,3.5-5.5,5.4c-0.8-1.2-1.6-2.3-3.1-2c-0.7,0.1-1.5,0.5-2,1C29.6,32.6,30,34.3,32.4,36.2z"/>
</g>
</svg>
