<?xml version="1.0" encoding="utf-8"?>
<!-- Generator: Adobe Illustrator 26.3.1, SVG Export Plug-In . SVG Version: 6.00 Build 0)  -->
<svg version="1.1" xmlns="http://www.w3.org/2000/svg" xmlns:xlink="http://www.w3.org/1999/xlink" x="0px" y="0px"
	 viewBox="0 0 510.2 510.2" style="enable-background:new 0 0 510.2 510.2;" xml:space="preserve">
<style type="text/css">
	.st0{fill:#E0E0E0;}
	.st1{fill:#F0F0F0;}
	.st2{fill:#FAFAFA;}
	.st3{fill:#E6E6E6;}
	.st4{fill:#F5F5F5;}
	.st5{fill:#407BFF;}
	.st6{opacity:0.5;}
	.st7{fill:#FFFFFF;}
	.st8{opacity:0.4;}
	.st9{opacity:0.5;fill:#FFFFFF;}
	.st10{opacity:0.7;fill:#FFFFFF;}
	.st11{opacity:0.3;fill:#FFFFFF;}
	.st12{fill:#E4897B;}
	.st13{opacity:0.4;fill:#FAFAFA;}
	.st14{opacity:0.3;}
	.st15{fill:#263238;}
	.st16{fill:#DE5753;}
	.st17{opacity:0.1;}
	.st18{fill:#203048;}
	.st19{fill:#CE6F64;}
	.st20{fill:#161F33;}
	.st21{opacity:0.2;}
</style>
<g id="Background_Complete">
</g>
<g id="Shadow">
</g>
<g id="Speech_Bubbles">
</g>
<g id="Character">
</g>
<g id="Character_00000121251016926799420550000006364772347852201372_">
	<g>
		<g>
			<g>
				<g>
					<g>
						<rect x="5.1" y="400.5" class="st0" width="500" height="0.2"/>
						<rect x="350" y="409.7" class="st0" width="34.4" height="0.2"/>
						<rect x="405.6" y="409" class="st0" width="19.4" height="0.2"/>
						<rect x="226.8" y="409.6" class="st0" width="25.7" height="0.2"/>
						<rect x="253.5" y="413.1" class="st0" width="17.5" height="0.2"/>
						<rect x="96.8" y="407" class="st0" width="53" height="0.2"/>
						<path class="st0" d="M242.1,355.9H49c-3.1,0-5.7-2.6-5.7-5.7V78.7c0-3.1,2.6-5.7,5.7-5.7h193.1c3.1,0,5.7,2.6,5.7,5.7v271.4
							C247.8,353.3,245.3,355.9,242.1,355.9z M49,73.3c-3,0-5.5,2.4-5.5,5.5v271.4c0,3,2.4,5.5,5.5,5.5h193.1c3,0,5.5-2.4,5.5-5.5
							V78.7c0-3-2.4-5.5-5.5-5.5H49z"/>
						<path class="st0" d="M458.4,355.9H265.3c-3.1,0-5.7-2.6-5.7-5.7V78.7c0-3.1,2.6-5.7,5.7-5.7h193.1c3.1,0,5.7,2.6,5.7,5.7
							v271.4C464.1,353.3,461.6,355.9,458.4,355.9z M265.3,73.3c-3,0-5.5,2.4-5.5,5.5v271.4c0,3,2.4,5.5,5.5,5.5h193.1
							c3,0,5.5-2.4,5.5-5.5V78.7c0-3-2.4-5.5-5.5-5.5H265.3z"/>
					</g>
				</g>
			</g>
			<g>
				<g>
					<g>
						<g>
							<rect x="288.5" y="97.3" class="st0" width="150.7" height="129.6"/>
							<rect x="291.8" y="97.3" class="st1" width="150.7" height="129.6"/>
							
								<rect x="308.4" y="92.8" transform="matrix(-1.836970e-16 1 -1 -1.836970e-16 529.2553 -205.0434)" class="st2" width="117.4" height="138.7"/>
							
								<rect x="328.9" y="157.6" transform="matrix(-1.836970e-16 1 -1 -1.836970e-16 549.74 -225.5281)" class="st0" width="117.4" height="9.1"/>
							
								<rect x="281.3" y="157.6" transform="matrix(-1.836970e-16 1 -1 -1.836970e-16 502.0729 -177.861)" class="st0" width="117.4" height="9.1"/>
							
								<rect x="327.9" y="157.2" transform="matrix(-1.836970e-16 1 -1 -1.836970e-16 552.5953 -229.0463)" class="st1" width="125.8" height="9.1"/>
							
								<rect x="280.3" y="157.2" transform="matrix(-1.836970e-16 1 -1 -1.836970e-16 504.9282 -181.3792)" class="st1" width="125.8" height="9.1"/>
							
								<rect x="376.5" y="160.8" transform="matrix(-1.836970e-16 1 -1 -1.836970e-16 597.3273 -273.1154)" class="st0" width="117.4" height="2.5"/>
						</g>
					</g>
				</g>
				<g>
					<path class="st0" d="M182.5,199.6c0,0-18.3-31.6,7.1-56.8c0,0,6.6,4.3,6.5,10.1c-0.1,5.8-7.1,7.3-5.6,12.1
						c1.5,4.9,8.1,9.6,3.8,13.6c-4.3,4,0.7,7.6,0.4,12.5C194.4,196.2,182.5,199.6,182.5,199.6z"/>
					<path class="st3" d="M185.3,204.8c0,0,7.4-35.8-24.6-51.6c0,0-4.9,6.2-3,11.7c1.9,5.5,9,4.7,9.1,9.8c0.1,5.1-4.7,11.7,0.7,14.1
						c5.4,2.4,1.7,7.4,3.6,12C172.9,205.3,185.3,204.8,185.3,204.8z"/>
					<g>
						<path class="st1" d="M169,195.7c0,0,0.3,30.9,12.7,30.9c12.3,0,12.7-30.9,12.7-30.9H169z"/>
					</g>
				</g>
				<g>
					<path class="st3" d="M94.8,215c0,0,0.7,11.6,27.1,11.6s27.1-11.6,27.1-11.6H94.8z"/>
				</g>
				<g>
					<path class="st1" d="M372.8,314.4h-13.9c-1.7,0-3.1-1.4-3.1-3.1v-23c0-1.7,1.4-3.1,3.1-3.1h13.9c1.7,0,3.1,1.4,3.1,3.1v23
						C376,313,374.6,314.4,372.8,314.4z"/>
					<path class="st3" d="M409.7,314.4h-9.4c-1.2,0-2.1-0.9-2.1-2.1v-15.5c0-1.2,0.9-2.1,2.1-2.1h9.4c1.2,0,2.1,0.9,2.1,2.1v15.5
						C411.8,313.4,410.9,314.4,409.7,314.4z"/>
					<path class="st1" d="M411.1,295H399c-0.4,0-0.7-0.3-0.7-0.7v-0.8c0-0.4,0.3-0.7,0.7-0.7h12.2c0.4,0,0.7,0.3,0.7,0.7v0.8
						C411.8,294.6,411.5,295,411.1,295z"/>
					<path class="st3" d="M323.5,298.1c0,0,0.5,16.3,19.6,16.3c19.1,0,19.6-16.3,19.6-16.3H323.5z"/>
					<g>
						<g>
							
								<rect x="276.1" y="270.8" transform="matrix(-1 -1.224647e-16 1.224647e-16 -1 581.0071 547.3705)" class="st0" width="28.9" height="5.7"/>
							<rect x="304.9" y="270.8" class="st1" width="143.6" height="5.7"/>
						</g>
					</g>
					<g>
						<g>
							
								<rect x="276.1" y="314.4" transform="matrix(-1 -1.224647e-16 1.224647e-16 -1 581.0071 634.4235)" class="st0" width="28.9" height="5.7"/>
							<rect x="304.9" y="314.4" class="st1" width="143.6" height="5.7"/>
						</g>
					</g>
					<rect x="281.1" y="276.5" class="st0" width="5.3" height="123.9"/>
					<rect x="304.9" y="276.5" class="st1" width="5.3" height="123.9"/>
					<rect x="424.8" y="276.5" class="st0" width="5.3" height="123.9"/>
					<rect x="443.2" y="276.5" class="st1" width="5.3" height="123.9"/>
				</g>
				<g>
					<g>
						<rect x="67.5" y="233.9" class="st3" width="27.3" height="159.1"/>
						<rect x="72.7" y="393" class="st3" width="134.7" height="7.5"/>
						
							<rect x="94.8" y="233.9" transform="matrix(-1 -1.224647e-16 1.224647e-16 -1 307.5091 626.8164)" class="st1" width="117.9" height="159.1"/>
						
							<rect x="105.5" y="294" transform="matrix(-1 -1.224647e-16 1.224647e-16 -1 307.5091 626.8164)" class="st3" width="96.4" height="38.9"/>
						
							<rect x="105.5" y="339.9" transform="matrix(-1 -1.224647e-16 1.224647e-16 -1 307.5091 718.7004)" class="st3" width="96.4" height="38.9"/>
						<path class="st1" d="M164.6,298.2h-21.6c-1.5,0-2.7-1.2-2.7-2.7l0,0c0-1.5,1.2-2.7,2.7-2.7h21.6c1.5,0,2.7,1.2,2.7,2.7l0,0
							C167.2,297,166,298.2,164.6,298.2z"/>
						
							<rect x="105.5" y="248" transform="matrix(-1 -1.224647e-16 1.224647e-16 -1 307.5091 534.9324)" class="st3" width="96.4" height="38.9"/>
						<path class="st1" d="M164.6,252.3h-21.6c-1.5,0-2.7-1.2-2.7-2.7l0,0c0-1.5,1.2-2.7,2.7-2.7h21.6c1.5,0,2.7,1.2,2.7,2.7l0,0
							C167.2,251.1,166,252.3,164.6,252.3z"/>
						<path class="st1" d="M164.6,344.2h-21.6c-1.5,0-2.7-1.2-2.7-2.7l0,0c0-1.5,1.2-2.7,2.7-2.7h21.6c1.5,0,2.7,1.2,2.7,2.7l0,0
							C167.2,343,166,344.2,164.6,344.2z"/>
					</g>
					<rect x="94.8" y="226.6" class="st3" width="121.5" height="7.3"/>
					
						<rect x="63.7" y="226.6" transform="matrix(-1 -1.224647e-16 1.224647e-16 -1 158.4825 460.4805)" class="st0" width="31.1" height="7.3"/>
				</g>
				<g>
					<rect x="81.1" y="103.4" class="st3" width="44.2" height="48.5"/>
					<rect x="84.4" y="103.4" class="st1" width="45.7" height="48.5"/>
					
						<rect x="86.8" y="108.7" transform="matrix(-1.836970e-16 1 -1 -1.836970e-16 234.89 20.4602)" class="st2" width="40.9" height="38"/>
					
						<rect x="96.7" y="117.9" transform="matrix(-1.836970e-16 1 -1 -1.836970e-16 234.89 20.4602)" class="st1" width="21.1" height="19.6"/>
				</g>
				<g>
					<g>
						<rect x="138.3" y="89.1" class="st3" width="33.5" height="36"/>
						<rect x="141.5" y="89.1" class="st1" width="33.9" height="36"/>
						
							<rect x="143.3" y="93" transform="matrix(-1.836970e-16 1 -1 -1.836970e-16 265.5583 -51.4015)" class="st2" width="30.3" height="28.2"/>
						<polygon class="st1" points="158.5,99.4 150.8,112.8 166.2,112.8 						"/>
					</g>
				</g>
			</g>
		</g>
		<ellipse class="st4" cx="255.1" cy="434.3" rx="193.9" ry="11.3"/>
		<g>
			<g>
				<path class="st5" d="M424.9,209.3h-98.1c-5.2,0-9.4-4.2-9.4-9.4v-26.7c0-5.2,4.2-9.4,9.4-9.4h98.1c5.2,0,9.4,4.2,9.4,9.4v26.7
					C434.3,205.1,430.1,209.3,424.9,209.3z"/>
				<g>
					<g>
						<path class="st5" d="M405.5,176.6h-76.6c-0.9,0-1.6-0.7-1.6-1.6v-1.8c0-0.9,0.7-1.6,1.6-1.6h76.6c0.9,0,1.6,0.7,1.6,1.6v1.8
							C407.1,175.9,406.4,176.6,405.5,176.6z"/>
						<path class="st5" d="M381.2,188.9h-52.3c-0.9,0-1.6-0.7-1.6-1.6v-1.8c0-0.9,0.7-1.6,1.6-1.6h52.3c0.9,0,1.6,0.7,1.6,1.6v1.8
							C382.8,188.1,382.1,188.9,381.2,188.9z"/>
						<path class="st5" d="M367.1,201.1h-38.3c-0.9,0-1.6-0.7-1.6-1.6v-1.8c0-0.9,0.7-1.6,1.6-1.6h38.3c0.9,0,1.6,0.7,1.6,1.6v1.8
							C368.8,200.4,368,201.1,367.1,201.1z"/>
						<path class="st5" d="M414.6,201.1h-38.3c-0.9,0-1.6-0.7-1.6-1.6v-1.8c0-0.9,0.7-1.6,1.6-1.6h38.3c0.9,0,1.6,0.7,1.6,1.6v1.8
							C416.3,200.4,415.5,201.1,414.6,201.1z"/>
					</g>
					<g class="st6">
						<path class="st7" d="M405.5,176.6h-76.6c-0.9,0-1.6-0.7-1.6-1.6v-1.8c0-0.9,0.7-1.6,1.6-1.6h76.6c0.9,0,1.6,0.7,1.6,1.6v1.8
							C407.1,175.9,406.4,176.6,405.5,176.6z"/>
						<path class="st7" d="M381.2,188.9h-52.3c-0.9,0-1.6-0.7-1.6-1.6v-1.8c0-0.9,0.7-1.6,1.6-1.6h52.3c0.9,0,1.6,0.7,1.6,1.6v1.8
							C382.8,188.1,382.1,188.9,381.2,188.9z"/>
						<path class="st7" d="M367.1,201.1h-38.3c-0.9,0-1.6-0.7-1.6-1.6v-1.8c0-0.9,0.7-1.6,1.6-1.6h38.3c0.9,0,1.6,0.7,1.6,1.6v1.8
							C368.8,200.4,368,201.1,367.1,201.1z"/>
						<path class="st7" d="M414.6,201.1h-38.3c-0.9,0-1.6-0.7-1.6-1.6v-1.8c0-0.9,0.7-1.6,1.6-1.6h38.3c0.9,0,1.6,0.7,1.6,1.6v1.8
							C416.3,200.4,415.5,201.1,414.6,201.1z"/>
					</g>
				</g>
			</g>
			<g>
				<path class="st5" d="M346.3,219.9H235c-7.6,0-13.7-6.2-13.7-13.7V167c0-7.6,6.2-13.7,13.7-13.7h111.4c7.6,0,13.7,6.2,13.7,13.7
					v39.1C360.1,213.7,353.9,219.9,346.3,219.9z"/>
				<g>
					<g>
						<path class="st5" d="M350.3,172H237.9c-1.3,0-2.4-1.1-2.4-2.4v-2.6c0-1.3,1.1-2.4,2.4-2.4h112.3c1.3,0,2.4,1.1,2.4,2.4v2.6
							C352.7,170.9,351.6,172,350.3,172z"/>
						<path class="st5" d="M314.7,189.9h-76.8c-1.3,0-2.4-1.1-2.4-2.4v-2.6c0-1.3,1.1-2.4,2.4-2.4h76.8c1.3,0,2.4,1.1,2.4,2.4v2.6
							C317.1,188.8,316,189.9,314.7,189.9z"/>
						<path class="st5" d="M294.1,207.9h-56.2c-1.3,0-2.4-1.1-2.4-2.4v-2.6c0-1.3,1.1-2.4,2.4-2.4h56.2c1.3,0,2.4,1.1,2.4,2.4v2.6
							C296.5,206.8,295.4,207.9,294.1,207.9z"/>
						<path class="st5" d="M354.4,207.9h-46.8c-1.3,0-2.4-1.1-2.4-2.4v-2.6c0-1.3,1.1-2.4,2.4-2.4h46.8c1.3,0,2.4,1.1,2.4,2.4v2.6
							C356.8,206.8,355.7,207.9,354.4,207.9z"/>
					</g>
					<g class="st6">
						<path class="st7" d="M350.3,172H237.9c-1.3,0-2.4-1.1-2.4-2.4v-2.6c0-1.3,1.1-2.4,2.4-2.4h112.3c1.3,0,2.4,1.1,2.4,2.4v2.6
							C352.7,170.9,351.6,172,350.3,172z"/>
						<path class="st7" d="M314.7,189.9h-76.8c-1.3,0-2.4-1.1-2.4-2.4v-2.6c0-1.3,1.1-2.4,2.4-2.4h76.8c1.3,0,2.4,1.1,2.4,2.4v2.6
							C317.1,188.8,316,189.9,314.7,189.9z"/>
						<path class="st7" d="M294.1,207.9h-56.2c-1.3,0-2.4-1.1-2.4-2.4v-2.6c0-1.3,1.1-2.4,2.4-2.4h56.2c1.3,0,2.4,1.1,2.4,2.4v2.6
							C296.5,206.8,295.4,207.9,294.1,207.9z"/>
						<path class="st7" d="M354.4,207.9h-46.8c-1.3,0-2.4-1.1-2.4-2.4v-2.6c0-1.3,1.1-2.4,2.4-2.4h46.8c1.3,0,2.4,1.1,2.4,2.4v2.6
							C356.8,206.8,355.7,207.9,354.4,207.9z"/>
					</g>
				</g>
			</g>
			<g>
				<g>
					<path class="st5" d="M277.1,325.1h-53.6c-3.5,0-6.4-2.9-6.4-6.4v-80.3c0-3.5,2.9-6.4,6.4-6.4h53.6c3.5,0,6.4,2.9,6.4,6.4v80.3
						C283.5,322.2,280.6,325.1,277.1,325.1z"/>
					<path class="st8" d="M277.1,325.1h-53.6c-3.5,0-6.4-2.9-6.4-6.4v-80.3c0-3.5,2.9-6.4,6.4-6.4h53.6c3.5,0,6.4,2.9,6.4,6.4v80.3
						C283.5,322.2,280.6,325.1,277.1,325.1z"/>
				</g>
				<path class="st2" d="M274.6,245.8h-48.7c-0.7,0-1.2-0.5-1.2-1.2v-1.8c0-0.7,0.5-1.2,1.2-1.2h48.7c0.7,0,1.2,0.5,1.2,1.2v1.8
					C275.8,245.3,275.3,245.8,274.6,245.8z"/>
				<path class="st2" d="M259.1,255.7h-33.2c-0.7,0-1.2-0.5-1.2-1.2v-1.8c0-0.7,0.5-1.2,1.2-1.2h33.2c0.7,0,1.2,0.5,1.2,1.2v1.8
					C260.3,255.2,259.8,255.7,259.1,255.7z"/>
				<path class="st2" d="M274.6,265.7h-48.7c-0.7,0-1.2-0.5-1.2-1.2v-1.8c0-0.7,0.5-1.2,1.2-1.2h48.7c0.7,0,1.2,0.5,1.2,1.2v1.8
					C275.8,265.2,275.3,265.7,274.6,265.7z"/>
				<path class="st2" d="M244,275.6h-18.1c-0.7,0-1.2-0.5-1.2-1.2v-1.8c0-0.7,0.5-1.2,1.2-1.2H244c0.7,0,1.2,0.5,1.2,1.2v1.8
					C245.2,275.1,244.7,275.6,244,275.6z"/>
				<path class="st2" d="M269.4,275.6h-18.1c-0.7,0-1.2-0.5-1.2-1.2v-1.8c0-0.7,0.5-1.2,1.2-1.2h18.1c0.7,0,1.2,0.5,1.2,1.2v1.8
					C270.6,275.1,270,275.6,269.4,275.6z"/>
				<path class="st2" d="M274.6,285.6h-48.7c-0.7,0-1.2-0.5-1.2-1.2v-1.8c0-0.7,0.5-1.2,1.2-1.2h48.7c0.7,0,1.2,0.5,1.2,1.2v1.8
					C275.8,285.1,275.3,285.6,274.6,285.6z"/>
				<path class="st2" d="M274.6,295.5h-48.7c-0.7,0-1.2-0.5-1.2-1.2v-1.8c0-0.7,0.5-1.2,1.2-1.2h48.7c0.7,0,1.2,0.5,1.2,1.2v1.8
					C275.8,295,275.3,295.5,274.6,295.5z"/>
				<path class="st2" d="M266,305.5h-40.1c-0.7,0-1.2-0.5-1.2-1.2v-1.8c0-0.7,0.5-1.2,1.2-1.2H266c0.7,0,1.2,0.5,1.2,1.2v1.8
					C267.2,304.9,266.7,305.5,266,305.5z"/>
				<path class="st2" d="M244.6,315.4h-18.7c-0.7,0-1.2-0.5-1.2-1.2v-1.8c0-0.7,0.5-1.2,1.2-1.2h18.7c0.7,0,1.2,0.5,1.2,1.2v1.8
					C245.8,314.9,245.3,315.4,244.6,315.4z"/>
			</g>
			<g>
				<g>
					<path class="st5" d="M291.6,231.4h-74.4l32.9,26.2l50.4,19v-36.2C300.5,235.4,296.5,231.4,291.6,231.4z"/>
					<path class="st8" d="M291.6,231.4h-74.4l32.9,26.2l50.4,19v-36.2C300.5,235.4,296.5,231.4,291.6,231.4z"/>
				</g>
				<path class="st2" d="M288.4,250.6h-54.4c-0.8,0-1.5-0.7-1.5-1.5v-2.8c0-0.8,0.7-1.5,1.5-1.5h54.4c0.8,0,1.5,0.7,1.5,1.5v2.8
					C289.8,249.9,289.2,250.6,288.4,250.6z"/>
			</g>
			<g>
				<path class="st5" d="M314.9,302.2v-52.3c0-4,3.3-7.3,7.3-7.3H413c4,0,7.3,3.3,7.3,7.3v52.3c0,4-3.3,7.3-7.3,7.3h-90.9
					C318.2,309.5,314.9,306.2,314.9,302.2z"/>
				<g>
					<path class="st5" d="M331.5,285.6v-52.3c0-4,3.3-7.3,7.3-7.3h90.9c4,0,7.3,3.3,7.3,7.3v52.3c0,4-3.3,7.3-7.3,7.3h-90.9
						C334.7,292.9,331.5,289.6,331.5,285.6z"/>
					<path class="st9" d="M331.5,285.6v-52.3c0-4,3.3-7.3,7.3-7.3h90.9c4,0,7.3,3.3,7.3,7.3v52.3c0,4-3.3,7.3-7.3,7.3h-90.9
						C334.7,292.9,331.5,289.6,331.5,285.6z"/>
				</g>
				<g>
					<path class="st5" d="M391.5,267.7v-32.2c0-1.8,1.5-3.2,3.2-3.2h29.7c1.8,0,3.2,1.5,3.2,3.2v32.2c0,1.8-1.5,3.2-3.2,3.2h-29.7
						C392.9,271,391.5,269.5,391.5,267.7z"/>
					<path class="st10" d="M391.5,267.7v-32.2c0-1.8,1.5-3.2,3.2-3.2h29.7c1.8,0,3.2,1.5,3.2,3.2v32.2c0,1.8-1.5,3.2-3.2,3.2h-29.7
						C392.9,271,391.5,269.5,391.5,267.7z"/>
				</g>
				<g>
					<path class="st5" d="M358.1,283.3v-24.7c0-1.4,1.1-2.5,2.5-2.5h22.8c1.4,0,2.5,1.1,2.5,2.5v24.7c0,1.4-1.1,2.5-2.5,2.5h-22.8
						C359.2,285.8,358.1,284.7,358.1,283.3z"/>
					<path class="st11" d="M358.1,283.3v-24.7c0-1.4,1.1-2.5,2.5-2.5h22.8c1.4,0,2.5,1.1,2.5,2.5v24.7c0,1.4-1.1,2.5-2.5,2.5h-22.8
						C359.2,285.8,358.1,284.7,358.1,283.3z"/>
				</g>
				<g>
					<path class="st5" d="M113.1,126.8v-13.3c0-4.1,3.3-7.4,7.4-7.4h244.1c4.1,0,7.4,3.3,7.4,7.4v13.3c0,4.1-3.3,7.4-7.4,7.4H120.5
						C116.4,134.2,113.1,130.9,113.1,126.8z"/>
					<path class="st9" d="M113.1,126.8v-13.3c0-4.1,3.3-7.4,7.4-7.4h244.1c4.1,0,7.4,3.3,7.4,7.4v13.3c0,4.1-3.3,7.4-7.4,7.4H120.5
						C116.4,134.2,113.1,130.9,113.1,126.8z"/>
				</g>
				<g>
					
						<rect x="285.8" y="98.9" transform="matrix(-1.836970e-16 1 -1 -1.836970e-16 424.7216 -156.597)" class="st5" width="9.7" height="70.3"/>
					
						<rect x="285.8" y="98.9" transform="matrix(-1.836970e-16 1 -1 -1.836970e-16 424.7216 -156.597)" class="st9" width="9.7" height="70.3"/>
				</g>
				<path class="st5" d="M138.3,85.3V72c0-4.1,3.3-7.4,7.4-7.4h244.1c4.1,0,7.4,3.3,7.4,7.4v13.3c0,4.1-3.3,7.4-7.4,7.4H145.6
					C141.6,92.7,138.3,89.4,138.3,85.3z"/>
			</g>
		</g>
		<g>
			<path class="st12" d="M135.5,212.3c-0.9,2-1.9,4.2-2.7,6.3c-0.9,2.1-1.7,4.3-2.5,6.4c-1.6,4.3-2.9,8.7-3.8,12.9l-0.3,1.6
				l-0.1,0.6c0,0.2,0,0.4-0.1,0.6c0,0.8,0,1.9,0.1,2.9c0.2,2.1,0.5,4.4,1,6.6c0.8,4.5,1.9,9.2,3,13.8l-5.1,2
				c-2.4-4.4-4.4-8.8-6.1-13.6c-0.8-2.4-1.6-4.8-2.1-7.5c-0.3-1.3-0.5-2.7-0.6-4.3c0-0.4,0-0.8,0-1.2c0-0.4,0-0.9,0.1-1.2l0.2-2
				c0.3-2.6,0.8-5.2,1.4-7.7c0.6-2.5,1.3-4.9,2-7.3c0.8-2.4,1.6-4.8,2.6-7.1c0.5-1.2,1-2.3,1.5-3.5c0.5-1.2,1-2.3,1.6-3.5
				L135.5,212.3z"/>
			<path class="st12" d="M129.8,262.7l3.9,3.8l-8.5,4c0,0-2.1-3.6-0.6-6.9L129.8,262.7z"/>
			<polygon class="st12" points="136.9,272.2 129.7,275.2 125.2,270.5 133.7,266.6 			"/>
			<g>
				<path class="st13" d="M282.5,268.1c-39.5-4.4-68-40-63.6-79.6c4.4-39.5,40-68,79.6-63.6c39.5,4.4,68,40,63.6,79.6
					C357.7,244.1,322.1,272.5,282.5,268.1z"/>
				<path class="st13" d="M334.9,139.9l-109.5,87.5c-0.5-1-0.9-2-1.3-3c-2.7-6.4-4.5-13.3-5.2-20.5l0,0l94.6-75.6
					C321.3,130.9,328.6,134.9,334.9,139.9z"/>
				<path class="st13" d="M360.2,178.2l-102.9,82.3c-9.9-5.1-18.3-12.5-24.8-21.3l112.4-89.8C352,157.6,357.3,167.4,360.2,178.2z"/>
				<g>
					<path class="st5" d="M209.5,169.1l-0.9-0.3c1.6-4.9,3.7-9.6,6.2-14.1l0.9,0.5C213.2,159.6,211.1,164.3,209.5,169.1z
						 M221.6,145.7l-0.8-0.6c8.1-11,19-20.1,31.4-26.2l0.4,0.9C240.4,125.9,229.7,134.9,221.6,145.7z M331.2,121.2
						c-3.3-1.8-6.7-3.3-10.1-4.6l0.4-0.9c3.5,1.3,6.9,2.9,10.2,4.7L331.2,121.2z"/>
					<path class="st14" d="M209.5,169.1l-0.9-0.3c1.6-4.9,3.7-9.6,6.2-14.1l0.9,0.5C213.2,159.6,211.1,164.3,209.5,169.1z
						 M221.6,145.7l-0.8-0.6c8.1-11,19-20.1,31.4-26.2l0.4,0.9C240.4,125.9,229.7,134.9,221.6,145.7z M331.2,121.2
						c-3.3-1.8-6.7-3.3-10.1-4.6l0.4-0.9c3.5,1.3,6.9,2.9,10.2,4.7L331.2,121.2z"/>
				</g>
				<g>
					<path class="st5" d="M365,159.8c-20.3-41.1-70.1-58-111.2-37.7c-38.2,18.9-55.5,63.2-41.4,102.4c-6.7,2.3-13.3,4.9-19.8,7.4
						c-9.5,3.7-18.8,7.7-28.1,11.8c-9.3,4.1-18.5,8.3-27.7,12.7c-4.6,2.1-9.1,4.4-13.7,6.6c-2.3,1-4.5,2.4-6.3,4.3
						c-0.9,1-1.8,2.1-2.6,3.4c-0.8,1.3-1.5,2.7-2,4.6c-1.5,6,1.5,12.4,7.3,14.8c1.8,0.8,3.4,1.1,4.9,1.3c1.5,0.2,2.9,0.2,4.2,0
						c2.7-0.3,5.1-1.2,7.3-2.4c4.5-2.3,9.1-4.5,13.6-6.8c9-4.6,18-9.4,26.9-14.2c8.9-4.9,17.7-9.9,26.4-15.2c6-3.6,12.1-7.3,18-11.2
						c22.6,35,68.3,48.3,106.5,29.4C368.4,250.7,385.3,200.9,365,159.8z M319.5,255.3c-32.5,16-71.7,2.7-87.8-29.8
						c-16-32.4-2.7-71.7,29.8-87.8c32.5-16,71.7-2.7,87.8,29.8C365.3,200,352,239.3,319.5,255.3z"/>
					<path class="st14" d="M365,159.8c-20.3-41.1-70.1-58-111.2-37.7c-38.2,18.9-55.5,63.2-41.4,102.4c-6.7,2.3-13.3,4.9-19.8,7.4
						c-9.5,3.7-18.8,7.7-28.1,11.8c-9.3,4.1-18.5,8.3-27.7,12.7c-4.6,2.1-9.1,4.4-13.7,6.6c-2.3,1-4.5,2.4-6.3,4.3
						c-0.9,1-1.8,2.1-2.6,3.4c-0.8,1.3-1.5,2.7-2,4.6c-1.5,6,1.5,12.4,7.3,14.8c1.8,0.8,3.4,1.1,4.9,1.3c1.5,0.2,2.9,0.2,4.2,0
						c2.7-0.3,5.1-1.2,7.3-2.4c4.5-2.3,9.1-4.5,13.6-6.8c9-4.6,18-9.4,26.9-14.2c8.9-4.9,17.7-9.9,26.4-15.2c6-3.6,12.1-7.3,18-11.2
						c22.6,35,68.3,48.3,106.5,29.4C368.4,250.7,385.3,200.9,365,159.8z M319.5,255.3c-32.5,16-71.7,2.7-87.8-29.8
						c-16-32.4-2.7-71.7,29.8-87.8c32.5-16,71.7-2.7,87.8,29.8C365.3,200,352,239.3,319.5,255.3z"/>
				</g>
			</g>
			<path class="st15" d="M163.1,176.6c0,0.6,0.3,1.1,0.7,1.1c0.4,0,0.7-0.5,0.7-1.1c0-0.6-0.3-1.1-0.7-1.1
				C163.5,175.5,163.1,176,163.1,176.6z"/>
			<path class="st16" d="M163.4,177.7c0,0,1.3,3.4,2.8,5.1c-1,1-2.8,0.5-2.8,0.5L163.4,177.7z"/>
			<path class="st15" d="M161,173.3c-0.1,0-0.2-0.1-0.3-0.1c-0.1-0.2-0.1-0.4,0.1-0.5c1.6-1.1,3.1-0.6,3.1-0.5
				c0.2,0.1,0.3,0.3,0.2,0.5c-0.1,0.2-0.3,0.3-0.4,0.2c-0.1,0-1.2-0.4-2.5,0.5C161.2,173.3,161.1,173.3,161,173.3z"/>
			<path class="st12" d="M142.9,181.1c1.1,5.4,2.1,15.2-1.7,18.8c0,0,1.5,5.5,11.5,5.5c11,0,5.2-5.5,5.2-5.5
				c-6-1.4-5.8-5.9-4.8-10.1L142.9,181.1z"/>
			<g>
				<path class="st5" d="M136.8,202.7c1.2-1.9-0.8-6.3-0.8-6.3s17.7-4.5,24.9,2.4c1.5,1.4-0.2,3.5-0.2,3.5L136.8,202.7z"/>
				<path class="st17" d="M136.8,202.7c1.2-1.9-0.8-6.3-0.8-6.3s17.7-4.5,24.9,2.4c1.5,1.4-0.2,3.5-0.2,3.5L136.8,202.7z"/>
			</g>
			<path class="st5" d="M107.5,406.7c-0.9,0-2.4-1.6-2.9-2.1c0-0.1,0-0.1,0-0.2c0-0.1,0.1-0.1,0.2-0.1c0.1,0,2.6,0.2,3.2,1.1
				c0.2,0.2,0.2,0.4,0.2,0.7c-0.1,0.4-0.3,0.6-0.5,0.6C107.6,406.7,107.6,406.7,107.5,406.7z M105.2,404.7c0.7,0.8,1.9,1.8,2.4,1.7
				c0,0,0.2,0,0.3-0.4c0-0.1,0-0.3-0.1-0.4C107.4,405.1,106,404.8,105.2,404.7z"/>
			<path class="st5" d="M105.3,404.7c-0.2,0-0.4,0-0.5,0c-0.1,0-0.1-0.1-0.1-0.1c0-0.1,0-0.1,0-0.2c0.1-0.1,1.5-1.6,2.6-1.6
				c0,0,0,0,0,0c0.3,0,0.5,0.1,0.7,0.3c0.3,0.3,0.2,0.6,0.1,0.7C107.8,404.4,106.3,404.7,105.3,404.7z M105.2,404.4
				c0.9,0,2.4-0.3,2.7-0.7c0,0,0.1-0.1-0.1-0.3c-0.1-0.1-0.3-0.2-0.5-0.2c0,0,0,0,0,0C106.7,403.1,105.7,403.9,105.2,404.4z"/>
			<path class="st5" d="M173.5,429.4c-0.9,0-1.8-0.1-2.3-0.2c-0.1,0-0.1-0.1-0.1-0.1c0-0.1,0-0.1,0.1-0.2c0.1-0.1,2.7-1.5,3.9-1.2
				c0.3,0.1,0.4,0.2,0.6,0.4c0.2,0.4,0.1,0.6,0,0.8C175.4,429.3,174.4,429.4,173.5,429.4z M171.8,429c1.4,0.2,3.2,0.2,3.6-0.3
				c0-0.1,0.1-0.2,0-0.4c-0.1-0.1-0.2-0.2-0.3-0.2C174.3,427.8,172.7,428.5,171.8,429z"/>
			<path class="st5" d="M171.3,429.2c0,0-0.1,0-0.1,0c-0.1,0-0.1-0.1-0.1-0.2c0-0.1,0.2-2.1,1.1-2.8c0.3-0.2,0.6-0.3,1-0.3
				c0.5,0,0.6,0.3,0.6,0.5C174,427.2,172.2,428.8,171.3,429.2C171.3,429.2,171.3,429.2,171.3,429.2z M173.1,426.2
				c-0.2,0-0.4,0.1-0.6,0.2c-0.6,0.5-0.9,1.7-1,2.3c0.9-0.5,2.1-1.8,2-2.3c0,0,0-0.2-0.3-0.2C173.1,426.2,173.1,426.2,173.1,426.2z"
				/>
			<polygon class="st12" points="163.2,429.1 170.6,429.1 171.3,412 163.9,412 			"/>
			<polygon class="st12" points="97.8,399.8 103.9,403.9 117.5,392.4 111.3,388.4 			"/>
			<path class="st15" d="M104.9,403.5l-6.4-5.2c-0.2-0.2-0.6-0.2-0.8,0l-5.3,4.1c-0.5,0.4-0.5,1.3,0,1.7c2.3,1.8,3.4,2.5,6.3,4.8
				c1.7,1.4,6,5.7,8.4,7.7c2.3,1.9,4.6-0.1,3.8-1.2c-3.6-4.5-5-8.4-5.4-10.8C105.5,404.2,105.3,403.8,104.9,403.5z"/>
			<path class="st15" d="M170.5,428.2h-8c-0.3,0-0.6,0.2-0.6,0.5l-1.5,6.5c-0.2,0.7,0.4,1.3,1.1,1.3c2.9,0,7.1-0.2,10.7-0.2
				c4.3,0,7.9,0.2,12.9,0.2c3,0,3.9-3,2.6-3.3c-5.7-1.3-10.4-1.4-15.4-4.5C171.7,428.4,171.1,428.2,170.5,428.2z"/>
			<path class="st15" d="M126.8,202.1c-6.4,3-10,23.1-10,23.1l15.6,6.2c0,0,3.5-8.3,5.5-17.2C140,205,133.3,199,126.8,202.1z"/>
			<path class="st18" d="M135,213.4c-3.9,3.9-5.6,11.5-6.4,16.5l3.7,1.5c0,0,3.4-8,5.4-16.6C137.5,212.6,136.6,211.8,135,213.4z"/>
			<path class="st15" d="M169.3,201.9c0,0,7.8,8.8,0.4,63.5c-11.8,0-33.5,0-39.3,0c-0.3-6,3.5-35.5-2.3-63.9c0,0,6.7-1.4,13.2-1.7
				c5-0.2,12.3-0.4,16.7,0C163.8,200.4,169.3,201.9,169.3,201.9z"/>
			<path class="st18" d="M172.8,223.1l-6.6-11.4c-1.3,6.2-1.8,10.1-1.6,16.3c0.2,3.9,3.8,18.4,7,20.6
				C172.7,237.9,173,229.6,172.8,223.1z"/>
			<path class="st12" d="M173.8,209.7c1,4.9,2,9.8,3.1,14.7c1.1,4.9,2.2,9.8,3.5,14.5c0.3,1.2,0.6,2.4,1,3.5l0.3,0.9l0.1,0.4
				c0,0,0,0,0-0.1c-0.1-0.1-0.2-0.1-0.1,0c0.1,0.2,0.7,0.6,1.5,0.9c0.8,0.3,1.8,0.6,2.9,0.8c4.3,0.8,9.5,0.9,14.3,0.9l1,5.4
				c-1.3,0.4-2.6,0.7-3.9,1c-1.3,0.3-2.6,0.6-4,0.8c-2.7,0.4-5.4,0.7-8.3,0.6c-1.5-0.1-3-0.2-4.6-0.6c-1.6-0.4-3.4-1-5.3-2.4
				c-0.9-0.7-1.8-1.7-2.5-3c-0.2-0.3-0.3-0.6-0.4-0.9l-0.2-0.5l-0.4-0.9c-0.5-1.3-0.9-2.5-1.4-3.8c-1.7-5-3.1-10-4.3-15.1
				c-1.2-5.1-2.3-10.1-3.2-15.2L173.8,209.7z"/>
			<path class="st15" d="M159.4,207.3c-2.1,6.7,6.3,26.7,6.3,26.7l16.7-4.2c0,0-0.6-10.4-4.4-18.6
				C172.3,198.7,161.9,199.2,159.4,207.3z"/>
			<path class="st12" d="M200.2,246.4l8.3-0.2l-4,8.7c0,0-3.4,0.5-6.2-4.1l-2.9-3.5l3.4-0.7C199.3,246.4,199.7,246.4,200.2,246.4z"
				/>
			<polygon class="st12" points="213.8,247.8 209,255 204.5,254.8 208.5,246.2 			"/>
			<g>
				<polygon class="st19" points="171.3,412 170.9,420.8 163.6,420.8 163.9,412 				"/>
				<polygon class="st19" points="111.3,388.4 117.5,392.4 110.5,398.3 104.3,394.3 				"/>
			</g>
			<path class="st12" d="M143.4,175.3c0.4,7.3,0.3,11.6,4,15.3c5.5,5.6,14.5,2.3,16.3-5c1.6-6.5,0.6-17.3-6.5-20.2
				C150.1,162.6,142.9,168.1,143.4,175.3z"/>
			<path class="st15" d="M134.8,174.1c1.8,6.6,6.1,14.3,11.6,14.8c6.8,0.6,9.9-6.5,10.8-13.8c4.1-2.8,1.9-5.9,6.1-6.3
				c5.3-0.5,3.6-10.2-3.4-11.7c0,0,2.3,4.3-2.6,2.2c-4.9-2.2-9.7-3.1-14.9-2.6c0,0,6.2,3.1,0.1,4.5c-6.1,1.4-7.9,5.2-5.1,7.4
				C137.5,168.6,133.6,169.7,134.8,174.1z"/>
			<path class="st12" d="M153.1,176.6c0.1,1.9,1,3.7,2.1,4.9c1.6,1.8,3.3,0.7,3.6-1.5c0.3-1.9-0.3-5.2-2.2-6.2
				C154.5,172.8,152.9,174.4,153.1,176.6z"/>
			<g>
				<path class="st5" d="M155.8,265.4c0,0,7.2,51.9,1.5,72.6c-8.9,32.9-43.1,60.7-43.1,60.7l-11.6-7.6c0,0,29.1-23.5,32.7-51
					c3.2-24.7-4.8-54.6-4.8-74.7C139.6,265.4,155.8,265.4,155.8,265.4z"/>
				<path class="st17" d="M155.8,265.4c0,0,7.2,51.9,1.5,72.6c-8.9,32.9-43.1,60.7-43.1,60.7l-11.6-7.6c0,0,29.1-23.5,32.7-51
					c3.2-24.7-4.8-54.6-4.8-74.7C139.6,265.4,155.8,265.4,155.8,265.4z"/>
			</g>
			<g>
				<path class="st5" d="M158.7,295.1c-3.4-3.8-6.3-6-6.3-6c1.2,16.8,2.2,41.8,1.1,59.5c1.5-3.4,2.8-6.9,3.7-10.5
					C160,327.9,159.7,310.4,158.7,295.1z"/>
				<path class="st14" d="M158.7,295.1c-3.4-3.8-6.3-6-6.3-6c1.2,16.8,2.2,41.8,1.1,59.5c1.5-3.4,2.8-6.9,3.7-10.5
					C160,327.9,159.7,310.4,158.7,295.1z"/>
			</g>
			<g>
				<path class="st5" d="M118.8,396.1c0,0-4.5,3-4.5,3l-12.7-8.3l3.9-3.3L118.8,396.1z"/>
				<path class="st14" d="M118.8,396.1c0,0-4.5,3-4.5,3l-12.7-8.3l3.9-3.3L118.8,396.1z"/>
			</g>
			<g>
				<path class="st5" d="M169.7,265.4c0,0,11.1,46.9,11.8,69.3c0.9,25.1-7.9,84.4-7.9,84.4h-12.4c0,0-1.5-59.7-2.1-82.6
					c-0.6-24.9-15.2-71.1-15.2-71.1H169.7z"/>
				<path class="st17" d="M169.7,265.4c0,0,11.1,46.9,11.8,69.3c0.9,25.1-7.9,84.4-7.9,84.4h-12.4c0,0-1.5-59.7-2.1-82.6
					c-0.6-24.9-15.2-71.1-15.2-71.1H169.7z"/>
			</g>
			<g>
				<path class="st5" d="M176,414.2c0.1,0-0.7,5.2-0.7,5.2h-15.1l-0.4-4.6L176,414.2z"/>
				<path class="st14" d="M176,414.2c0.1,0-0.7,5.2-0.7,5.2h-15.1l-0.4-4.6L176,414.2z"/>
			</g>
		</g>
		<g>
			<path class="st12" d="M361.1,220.3c0.9,0.8,1.5,1.5,2.2,2.2c0.7,0.7,1.4,1.5,2,2.3c1.3,1.5,2.5,3.1,3.7,4.8
				c2.4,3.2,4.4,6.7,6.3,10.3l0.4,0.7c0.2,0.4,0.3,0.7,0.5,1.1c0.2,0.8,0.4,1.5,0.4,2.3c0.1,1.5-0.2,2.8-0.5,4
				c-0.8,2.4-2,4.2-3.2,5.9c-2.6,3.3-5.5,6-8.8,8.5l-2.5-2.9c1.2-1.4,2.4-2.8,3.5-4.3c1.1-1.5,2.1-3,3-4.5c0.9-1.5,1.5-3.1,1.8-4.4
				c0.1-0.7,0.2-1.3,0.1-1.7c0-0.2-0.1-0.4-0.2-0.6c0-0.1-0.1-0.2-0.1-0.2l-0.3-0.5c-1.9-3.1-4-6.2-6.3-9.1
				c-1.1-1.5-2.3-2.9-3.5-4.3c-0.6-0.7-1.2-1.4-1.8-2.1c-0.6-0.6-1.3-1.4-1.8-1.9L361.1,220.3z"/>
			<path class="st12" d="M362.5,258.7l-7.5-1.2l3.9,6.5c0,0,4.8-0.2,6.2-3L362.5,258.7z"/>
			<polygon class="st12" points="349.5,260.5 353.1,265.8 358.9,264 355,257.4 			"/>
			<path class="st5" d="M362.1,429.3c-0.6,0-1.1-0.1-1.4-0.4c-0.3-0.2-0.3-0.5-0.3-0.9c0-0.3,0.2-0.4,0.4-0.5
				c0.9-0.4,3.1,1.1,3.4,1.2c0.1,0,0.1,0.1,0.1,0.2c0,0.1-0.1,0.1-0.1,0.1C363.6,429.2,362.8,429.3,362.1,429.3z M361.1,427.8
				c-0.1,0-0.2,0-0.2,0c-0.1,0-0.1,0.1-0.1,0.2c0,0.3,0,0.5,0.2,0.6c0.4,0.3,1.4,0.4,2.7,0.1C362.8,428.3,361.7,427.8,361.1,427.8z"
				/>
			<path class="st5" d="M364.1,429.1C364,429.1,364,429.1,364.1,429.1c-0.8-0.4-2.2-2-2-2.9c0-0.2,0.2-0.4,0.6-0.5
				c0.3,0,0.5,0,0.8,0.2c0.8,0.7,0.8,2.9,0.8,3C364.2,429,364.2,429,364.1,429.1C364.1,429.1,364.1,429.1,364.1,429.1z M362.8,426
				C362.8,426,362.7,426,362.8,426c-0.3,0-0.4,0.1-0.4,0.2c-0.1,0.5,0.7,1.7,1.5,2.3c0-0.7-0.2-1.9-0.7-2.4
				C363.1,426.1,362.9,426,362.8,426z"/>
			<path class="st5" d="M328,429.3c-0.7,0-1.4-0.1-1.8-0.5c-0.2-0.2-0.4-0.5-0.3-0.9c0-0.2,0.1-0.4,0.3-0.5c0.9-0.5,3.9,1,4.2,1.2
				c0.1,0,0.1,0.1,0.1,0.2c0,0.1-0.1,0.1-0.1,0.1C329.8,429.2,328.9,429.3,328,429.3z M326.7,427.8c-0.1,0-0.2,0-0.3,0.1
				c-0.1,0-0.1,0.1-0.1,0.2c0,0.2,0,0.4,0.2,0.6c0.5,0.4,1.7,0.5,3.3,0.2C328.8,428.3,327.4,427.8,326.7,427.8z"/>
			<path class="st5" d="M330.4,429.1C330.3,429.1,330.3,429.1,330.4,429.1c-1-0.4-2.7-2-2.6-2.9c0-0.2,0.2-0.5,0.7-0.5
				c0.4,0,0.7,0.1,1,0.3c0.9,0.8,1.1,2.8,1.1,2.9c0,0.1,0,0.1-0.1,0.2C330.4,429.1,330.4,429.1,330.4,429.1z M328.6,426
				c0,0-0.1,0-0.1,0c-0.3,0-0.3,0.2-0.4,0.2c-0.1,0.5,1.1,1.8,2,2.3c-0.1-0.6-0.3-1.8-1-2.3C329,426.1,328.8,426,328.6,426z"/>
			<path class="st12" d="M342.2,197.4c-0.3,4.5-1.1,13.7,2.4,16.2c0,0-0.6,4.6-8.8,5.7c-9,1.2-4.9-3.9-4.9-3.9
				c4.8-1.8,4.2-5.4,2.9-8.8L342.2,197.4z"/>
			<path class="st15" d="M323.6,189.4c-0.1,0-0.2,0-0.3-0.1c-1-1.2-2.3-1-2.4-1c-0.2,0-0.4-0.1-0.4-0.3c0-0.2,0.1-0.4,0.3-0.4
				c0.1,0,1.7-0.2,3,1.3c0.1,0.1,0.1,0.4,0,0.5C323.7,189.3,323.6,189.4,323.6,189.4z"/>
			<path class="st16" d="M322,193.8c0,0-0.7,2.7-1.6,4.1c0.9,0.6,2.2,0.1,2.2,0.1L322,193.8z"/>
			<path class="st15" d="M322.4,192.7c0.1,0.6-0.2,1.1-0.6,1.2c-0.4,0.1-0.8-0.4-0.9-1c-0.1-0.6,0.2-1.1,0.6-1.2
				C321.9,191.7,322.3,192.1,322.4,192.7z"/>
			<path class="st15" d="M321.7,191.7l-1.5-0.2C320.2,191.5,321.1,192.5,321.7,191.7z"/>
			<polygon class="st12" points="338.6,428.9 331.1,428.9 330.6,411.5 338.1,411.5 			"/>
			<polygon class="st12" points="372.7,428.9 365.2,428.9 362.7,411.5 370.2,411.5 			"/>
			<path class="st15" d="M364.7,428h8.4c0.3,0,0.6,0.2,0.6,0.5l1,6.7c0.1,0.7-0.5,1.3-1.2,1.3c-2.9-0.1-4.3-0.2-8.1-0.2
				c-2.3,0-5.6,0.2-8.8,0.2c-3.1,0-3.3-3.1-2-3.4c5.9-1.3,6.8-3,8.8-4.7C363.8,428.2,364.2,428,364.7,428z"/>
			<path class="st15" d="M330.9,428h8.4c0.3,0,0.6,0.2,0.6,0.5l1,6.7c0.1,0.7-0.5,1.3-1.2,1.3c-2.9-0.1-4.3-0.2-8.1-0.2
				c-2.3,0-7,0.2-10.1,0.2c-3.1,0-3.3-3.1-2-3.4c5.9-1.3,8.2-3,10.2-4.7C330,428.2,330.4,428,330.9,428z"/>
			<g>
				<polygon class="st19" points="330.6,411.6 330.9,420.5 338.4,420.5 338.1,411.6 				"/>
				<polygon class="st19" points="370.2,411.6 362.7,411.6 364,420.5 371.5,420.5 				"/>
			</g>
			<path class="st12" d="M342.3,188c0.5,7.4,0.9,10.5-2.3,14.8c-4.8,6.4-14.1,5.4-16.8-1.7c-2.4-6.4-2.9-17.5,4-21.3
				C333.8,176,341.8,180.6,342.3,188z"/>
			<path class="st15" d="M346.6,194.9c4.2,2.3,7.2-3.4,7.2-3.4s-7.5,0.8-6.8-3.6c0.9-5.9-3.3-13-13.9-12.1c-0.6,0.1-1.2,0.1-1.7,0.2
				c-2.1-0.9-4.8-0.8-6.6,1.5c-3,0.2-7,3.8-4.3,8.6c0,0,0.2-0.8,0.9-1.5c0.2,2.8,2.7,7.2,5.7,7.5c0.7,3.8-1.9,8.2-1,12.1
				c1.3,5.7,10.9,7,10.9,7c-1.1-2.8,0.6-4.4,0.6-4.4c6.5,3,10.9,0.1,10.9,0.1c-4.5-1.7-3.1-4.6-3.1-4.6c6,2.3,8.5-3.1,8.5-3.1
				C350.7,199.3,348,197.5,346.6,194.9z"/>
			<path class="st12" d="M329.7,193.1c0,1.5-0.6,3-1.5,3.9c-1.3,1.4-2.9,0.4-3.4-1.3c-0.4-1.6-0.2-4.2,1.5-4.9
				C328.1,190.1,329.7,191.4,329.7,193.1z"/>
			<path class="st15" d="M336,262.3c0,0,1.9,49.4,6.4,78.3c3.6,23.4,19.8,78.1,19.8,78.1h10.2c0,0-8.4-52.9-10.3-76
				c-4.7-58.6,7.5-71.2-4-83.4L336,262.3z"/>
			<path class="st20" d="M344.5,277.9c0,0-4.6-0.8-7.3,8c1,16.7,2.7,38.8,5.2,54.7c0.5,3.6,1.4,7.8,2.4,12.5
				C342.8,325,344.5,277.9,344.5,277.9z"/>
			<path class="st15" d="M328,263.3c0,0-8.4,54.6-7.9,77.5c0.5,23.8,9.2,78,9.2,78h10.1c0,0-1.6-52.8-0.7-76.2
				c1-25.4,11.4-82.2,11.4-82.2L328,263.3z"/>
			<g>
				<polygon class="st5" points="373.9,419.2 360.3,419.2 359.2,414.7 373.8,414.8 				"/>
				<polygon class="st21" points="373.9,419.2 360.3,419.2 359.2,414.7 373.8,414.8 				"/>
			</g>
			<g>
				<path class="st5" d="M357.6,213.6c3.9,0.4,9.8,11.5,9.8,11.5l-9.9,7.6c0,0-8.2-7.2-7.2-11.2
					C351.4,217.3,353.9,213.3,357.6,213.6z"/>
				<path class="st17" d="M357.6,213.6c3.9,0.4,9.8,11.5,9.8,11.5l-9.9,7.6c0,0-8.2-7.2-7.2-11.2
					C351.4,217.3,353.9,213.3,357.6,213.6z"/>
			</g>
			<g>
				<path class="st5" d="M354.7,218.4c0,0-1.6-0.4-3.1-0.3c-0.5,1.1-0.9,2.2-1.2,3.4c-1,4,7.2,11.2,7.2,11.2l0.7-0.6L354.7,218.4z"
					/>
				<path class="st14" d="M354.7,218.4c0,0-1.6-0.4-3.1-0.3c-0.5,1.1-0.9,2.2-1.2,3.4c-1,4,7.2,11.2,7.2,11.2l0.7-0.6L354.7,218.4z"
					/>
			</g>
			<path class="st12" d="M324.6,229.1c-2.9,7.2-5.9,14.5-8.2,21.8c-0.2,0.5-0.3,0.9-0.4,1.3l-0.3,1.1c-0.1,0.3-0.1,0.6,0,1
				c0.2,0.8,1.3,2.1,2.6,3.1c2.7,2.1,6.3,3.8,9.7,5.2l-0.9,3.7c-4.2-0.6-8.1-1.7-12.1-3.9c-1.9-1.2-4-2.6-5.4-5.5
				c-0.7-1.4-1-3.2-0.7-4.8c0-0.2,0.1-0.4,0.1-0.6l0.1-0.4l0.2-0.8c0.1-0.5,0.2-1,0.4-1.5c1-4,2.3-7.8,3.6-11.6
				c1.3-3.8,2.8-7.5,4.4-11.2L324.6,229.1z"/>
			<g>
				<path class="st5" d="M318.6,218.9c0,0-3.4,1.7,9.4,44.4c12-1.6,24.4-3.2,30.2-3.9c-2.1-12.2-3.1-19.8-0.5-45.8c0,0-6.5-0.5-13,0
					c-5.1,0.4-9.3,0.8-13.7,1.8C325.1,216.7,318.6,218.9,318.6,218.9z"/>
				<path class="st17" d="M318.6,218.9c0,0-3.4,1.7,9.4,44.4c12-1.6,24.4-3.2,30.2-3.9c-2.1-12.2-3.1-19.8-0.5-45.8
					c0,0-6.5-0.5-13,0c-5.1,0.4-9.3,0.8-13.7,1.8C325.1,216.7,318.6,218.9,318.6,218.9z"/>
			</g>
			<g>
				<path class="st5" d="M358.4,257.5l1.7,2.5c0.1,0.2-0.1,0.4-0.4,0.5l-31.6,4.1c-0.3,0-0.5-0.1-0.6-0.2l-0.6-2.7
					c0-0.2,0.2-0.4,0.5-0.4l30.6-4C358.1,257.4,358.3,257.4,358.4,257.5z"/>
				<path class="st21" d="M358.4,257.5l1.7,2.5c0.1,0.2-0.1,0.4-0.4,0.5l-31.6,4.1c-0.3,0-0.5-0.1-0.6-0.2l-0.6-2.7
					c0-0.2,0.2-0.4,0.5-0.4l30.6-4C358.1,257.4,358.3,257.4,358.4,257.5z"/>
			</g>
			<path class="st15" d="M354.7,261.5l0.8-0.1c0.2,0,0.3-0.1,0.3-0.2l-0.8-3.5c0-0.1-0.2-0.2-0.3-0.1l-0.8,0.1
				c-0.2,0-0.3,0.1-0.3,0.2l0.8,3.5C354.4,261.5,354.6,261.5,354.7,261.5z"/>
			<path class="st15" d="M334.9,264.1l0.8-0.1c0.2,0,0.3-0.1,0.3-0.2l-0.8-3.5c0-0.1-0.2-0.2-0.3-0.1l-0.8,0.1
				c-0.2,0-0.3,0.1-0.3,0.2l0.8,3.5C334.6,264.1,334.7,264.1,334.9,264.1z"/>
			<g>
				<path class="st5" d="M320,233.4c0.8,3.9,2,8.8,3.7,14.9l0.4-15.7L320,233.4z"/>
				<path class="st14" d="M320,233.4c0.8,3.9,2,8.8,3.7,14.9l0.4-15.7L320,233.4z"/>
			</g>
			<g>
				<path class="st5" d="M318.6,218.9c-3.8,1.5-7,14.3-7,14.3l12.9,6.3c0,0,6.2-15.7,3.4-18.8C325,217.6,322.9,217.2,318.6,218.9z"
					/>
				<path class="st17" d="M318.6,218.9c-3.8,1.5-7,14.3-7,14.3l12.9,6.3c0,0,6.2-15.7,3.4-18.8C325,217.6,322.9,217.2,318.6,218.9z"
					/>
			</g>
			<g>
				<polygon class="st5" points="341.1,419.2 327.6,419.2 326.5,414.7 341.6,414.8 				"/>
				<polygon class="st21" points="341.1,419.2 327.6,419.2 326.5,414.7 341.6,414.8 				"/>
			</g>
			<path class="st12" d="M328.1,261.3l-1.1-0.4c-1.2-0.5-2.4,0.5-2.2,1.8l0.8,5.2c0.2,1.1,1.3,1.8,2.4,1.4c0.4-0.1,0.7-0.3,1.1-0.6
				c0.7-0.6,1.1-1.5,1.1-2.5L330,264C330,262.8,329.2,261.8,328.1,261.3z"/>
		</g>
	</g>
</g>
</svg>
