<?xml version="1.0" encoding="utf-8"?>
<!-- Generator: Adobe Illustrator 26.4.1, SVG Export Plug-In . SVG Version: 6.00 Build 0)  -->
<svg version="1.1" id="close" xmlns="http://www.w3.org/2000/svg" xmlns:xlink="http://www.w3.org/1999/xlink" x="0px" y="0px"
	 viewBox="0 0 32 32" style="enable-background:new 0 0 32 32;" xml:space="preserve">
<style type="text/css">
	.st0{fill:#FFFFFF;}
</style>
<g>
	<path class="st0" d="M19.9,17.2c0,2.2-1.8,3.9-3.9,3.9s-3.9-1.8-3.9-3.9c0-2.2,1.8-3.9,3.9-3.9S19.9,15,19.9,17.2"/>
	<path class="st0" d="M29,12.9c0-1-0.4-2-1.1-2.8C27.1,9.5,26.1,9,25.1,9c-0.4,0-0.8-0.1-1.1-0.3c-0.3-0.2-0.6-0.5-0.8-0.8l-0.8-1.5
		c-0.3-0.6-0.8-1.2-1.4-1.6c-0.6-0.4-1.3-0.6-2-0.6h-6c-0.7,0-1.4,0.2-2,0.6c-0.6,0.4-1.1,0.9-1.4,1.6L8.8,7.9
		C8.6,8.2,8.3,8.5,8,8.7C7.7,8.9,7.3,9,6.9,9c-1,0-2,0.4-2.8,1.1C3.4,10.9,3,11.9,3,12.9v11c0,1,0.4,2,1.1,2.8
		c0.7,0.7,1.7,1.1,2.8,1.1h18.2c1,0,2-0.4,2.8-1.1c0.7-0.7,1.1-1.7,1.1-2.8L29,12.9z M16,23c-1.5,0-3-0.6-4.1-1.7
		c-1.1-1.1-1.7-2.5-1.7-4.1s0.6-3,1.7-4.1s2.5-1.7,4.1-1.7s3,0.6,4.1,1.7c1.1,1.1,1.7,2.5,1.7,4.1c0,1.5-0.6,3-1.7,4.1
		C19,22.3,17.5,23,16,23z"/>
</g>
</svg>
