<?xml version="1.0" encoding="utf-8"?>
<!-- Generator: Adobe Illustrator 26.4.1, SVG Export Plug-In . SVG Version: 6.00 Build 0)  -->
<svg version="1.1" id="圖層_1" xmlns="http://www.w3.org/2000/svg" xmlns:xlink="http://www.w3.org/1999/xlink" x="0px" y="0px"
	 viewBox="0 0 42 42" style="enable-background:new 0 0 42 42;" xml:space="preserve">
<style type="text/css">
	.st0{fill:#FFFFFF;}
	svg{ filter: drop-shadow(0px 3px 4px rgb(0 0 0 / 0.25)); }
</style>
<path class="st0" d="M5.3,15.5C5.1,8.3,10.6,1.8,18.4,0.2c7.8-1.5,16.6,4.2,18,12.4c0.8,4.4,0,8.5-2.6,12.1
	c-3.9,5.5-7.8,10.9-11.6,16.4c-0.7,1-1.7,1-2.5-0.2c-2.2-3-4.3-6.1-6.5-9.2c-1.9-2.7-3.8-5.3-5.6-8C6,21.5,5.4,18.9,5.3,15.5z
	 M26.2,15.8c0-2.9-2.4-5.3-5.2-5.2c-2.9,0-5.3,2.3-5.2,5.2c0,2.9,2.4,5.2,5.1,5.2C23.9,21,26.2,18.7,26.2,15.8z"/>
</svg>
