<?xml version="1.0" encoding="utf-8"?>
<!-- Generator: Adobe Illustrator 26.3.1, SVG Export Plug-In . SVG Version: 6.00 Build 0)  -->
<svg version="1.1" id="close" xmlns="http://www.w3.org/2000/svg" xmlns:xlink="http://www.w3.org/1999/xlink" x="0px" y="0px"
	 viewBox="0 0 32 32" style="enable-background:new 0 0 32 32;" xml:space="preserve">
<path d="M18.1,16L28.6,5.6c0.6-0.6,0.6-1.5,0-2.1c-0.6-0.6-1.5-0.6-2.1,0L16,13.9L5.6,3.4C5,2.9,4,2.9,3.4,3.4S2.9,5,3.4,5.6
	L13.9,16L3.4,26.4c-0.6,0.6-0.6,1.5,0,2.1C3.7,28.9,4.1,29,4.5,29c0.4,0,0.8-0.1,1.1-0.4L16,18.1l10.4,10.4c0.3,0.3,0.7,0.4,1.1,0.4
	c0.4,0,0.8-0.1,1.1-0.4c0.6-0.6,0.6-1.5,0-2.1L18.1,16z"/>
</svg>
