<?xml version="1.0" encoding="utf-8"?>
<!-- Generator: Adobe Illustrator 26.3.1, SVG Export Plug-In . SVG Version: 6.00 Build 0)  -->
<svg version="1.1" id="圖層_1" xmlns="http://www.w3.org/2000/svg" xmlns:xlink="http://www.w3.org/1999/xlink" x="0px" y="0px"
	 viewBox="0 0 25.9 26.3" style="enable-background:new 0 0 25.9 26.3;" xml:space="preserve">
<style type="text/css">
	.st0{fill:#666666;}
</style>
<path class="st0" d="M24.8,4.2c-0.4-0.4-0.9-0.6-1.5-0.6H2.5C2,3.6,1.5,3.8,1.1,4.2C0.7,4.6,0.5,5.1,0.5,5.7v15
	c0,0.6,0.2,1.1,0.6,1.5c0.4,0.4,0.9,0.6,1.5,0.6h20.8c0.6,0,1.1-0.2,1.5-0.6c0.4-0.4,0.6-0.9,0.6-1.5v-15
	C25.5,5.1,25.2,4.6,24.8,4.2z M15.9,17L15.9,17l-2,2c-0.2,0.2-0.4,0.3-0.7,0.4v0l0,0c-0.1,0-0.3,0-0.4,0l0,0v0
	c-0.3,0-0.5-0.2-0.7-0.4l-2-2c-0.3-0.4-0.2-0.8,0-1.1c0.3-0.3,0.7-0.3,1-0.1l1.1,1.1v-3.6c0-0.4,0.3-0.8,0.8-0.8
	c0.4,0,0.8,0.3,0.8,0.8V17l1.1-1.1c0.4-0.3,0.8-0.3,1.1,0C16.1,16.3,16.2,16.7,15.9,17z M23.4,9.4h-8.7c-0.3,0-0.5-0.1-0.7-0.2
	c-0.2-0.1-0.4-0.4-0.5-0.6l-0.4-1.2c-0.1-0.4-0.4-0.7-0.8-1c-0.3-0.2-0.8-0.4-1.2-0.4H2.5c-0.5,0-0.9,0.1-1.2,0.4V5.7
	c0-0.3,0.1-0.6,0.4-0.9c0.2-0.2,0.6-0.4,0.9-0.4h20.8c0.3,0,0.6,0.1,0.9,0.4s0.4,0.6,0.4,0.9l0,4.2C24.3,9.6,23.8,9.4,23.4,9.4z"/>
</svg>
