<?xml version="1.0" encoding="utf-8"?>
<!-- Generator: Adobe Illustrator 26.4.1, SVG Export Plug-In . SVG Version: 6.00 Build 0)  -->
<svg version="1.1" id="close" xmlns="http://www.w3.org/2000/svg" xmlns:xlink="http://www.w3.org/1999/xlink" x="0px" y="0px"
	 viewBox="0 0 32 32" style="enable-background:new 0 0 32 32;" xml:space="preserve">
<style type="text/css">
	.st0{fill:#FFFFFF;}
</style>
<circle cx="16" cy="16" r="13"/>
<path class="st0" d="M19.9,15.3h-5.8l1.6-2c0.1-0.2,0.2-0.4,0.2-0.6s-0.1-0.4-0.3-0.5c-0.3-0.3-0.9-0.2-1.1,0.1l-2.7,3.3
	c-0.2,0.3-0.2,0.7,0,1l2.4,3.1c0.2,0.2,0.4,0.3,0.6,0.3c0.2,0,0.3-0.1,0.5-0.2c0.2-0.1,0.3-0.3,0.3-0.5c0-0.2,0-0.4-0.2-0.6
	l-1.4-1.8h5.8c0.4,0,0.8-0.4,0.8-0.8S20.3,15.3,19.9,15.3z"/>
</svg>
