<?xml version="1.0" encoding="utf-8"?>
<!-- Generator: Adobe Illustrator 26.3.1, SVG Export Plug-In . SVG Version: 6.00 Build 0)  -->
<svg version="1.1" xmlns="http://www.w3.org/2000/svg" xmlns:xlink="http://www.w3.org/1999/xlink" x="0px" y="0px"
	 viewBox="0 0 32 32" style="enable-background:new 0 0 32 32;" xml:space="preserve">
<style type="text/css">
	.st0{display:none;}
	.st1{display:inline;}
	.st2{fill:#231815;}
</style>
<g id="圖層_1">
	<g>
		<path d="M29,9c0-0.1,0-0.1-0.1-0.2c0-0.1-0.1-0.1-0.1-0.2l-8.4-8.4c0,0-0.1-0.1-0.2-0.1C20.1,0.1,20.1,0,20,0c0,0-0.1,0-0.2,0H5.5
			C4.1,0,3,1.1,3,2.5v26.9C3,30.9,4.1,32,5.5,32h21c1.4,0,2.5-1.1,2.5-2.5V9.2c0,0,0,0,0,0l0,0L29,9z M21.6,8.4
			c-0.5,0-0.9-0.4-0.9-0.9V2.7l5.6,5.6L21.6,8.4z M21.6,10h5.8l0,19.5c0,0.5-0.4,0.9-0.9,0.9h-21c-0.5,0-0.9-0.4-0.9-0.9V2.5
			C4.6,2,5,1.6,5.5,1.6h13.6v5.8C19.1,8.8,20.2,10,21.6,10z"/>
		<path d="M7,16c0,0.4,0.4,0.8,0.8,0.8h16.4c0.4,0,0.8-0.4,0.8-0.8c0-0.4-0.4-0.8-0.8-0.8H7.8C7.4,15.2,7,15.6,7,16z"/>
		<path d="M24.2,20.4H7.8c-0.4,0-0.8,0.4-0.8,0.8C7,21.6,7.4,22,7.8,22h16.4c0.4,0,0.8-0.4,0.8-0.8C25,20.7,24.6,20.4,24.2,20.4z"/>
		<path d="M24.2,25.5H7.8c-0.4,0-0.8,0.4-0.8,0.8s0.4,0.8,0.8,0.8h16.4c0.4,0,0.8-0.4,0.8-0.8S24.6,25.5,24.2,25.5z"/>
	</g>
</g>
<g id="圖層_2" class="st0">
	<g class="st1">
		<path class="st2" d="M31.8,6.4l-6.1-6C25.5,0.1,25.3,0,25,0l-0.2,0l0,0c-0.1,0-0.2,0.1-0.3,0.2L1.9,22.8c-0.2,0.1-0.3,0.3-0.3,0.4
			l-1.5,5.3c-0.3,1.1-0.1,2.1,0.5,2.8C1.1,31.7,1.7,32,2.4,32c0.3,0,0.7-0.1,1-0.2l5.3-1.5c0.1,0,0.3-0.1,0.4-0.2L31.8,7.6
			C32.1,7.3,32.1,6.7,31.8,6.4z M1.8,29l1.4-5.1L25,2.1L29.9,7L8.1,28.7L3,30.1c-0.5,0.1-0.9,0.1-1.1-0.1C1.7,29.9,1.7,29.5,1.8,29z
			"/>
		<path class="st2" d="M31.1,30.2l-12.5,0c-1.6,0-3.1,0-4.4,0l0.3,0c-0.3,0-0.5,0-0.7,0h-0.1c-0.1,0-0.2,0-0.3,0
			c-0.4,0.1-0.7,0.4-0.7,0.8c0,0.4,0.3,0.8,0.7,0.8c0.1,0,0.2,0,0.3,0c0.1,0,0.1,0,0.2,0l0.2,0c0.3,0,0.8,0,1.3,0c0.4,0-1.7,0-1.1,0
			c0.9,0,1.9,0,3,0c1.2,0,2.6,0,3.9,0l9.9,0c0.2,0,0.4-0.1,0.6-0.2c0.2-0.2,0.3-0.4,0.3-0.6C32,30.6,31.6,30.2,31.1,30.2z"/>
	</g>
</g>
<g id="圖層_3" class="st0">
	<path class="st1" d="M25.8,11.5c0-0.1,0-0.1,0-0.2c0-4.9-4-9-9-9c-4.6,0-8.5,3.6-8.9,8.2c-0.2,0-0.3,0-0.5,0
		c-4.1,0-7.4,3.3-7.4,7.4c0,4.1,3.3,7.4,7.4,7.4h7.8v3.6c0,0.4,0.3,0.8,0.8,0.8c0.4,0,0.8-0.3,0.8-0.8v-3.6h8.8c0.1,0,0.2,0,0.2,0
		c3.5-0.3,6.3-3.3,6.3-6.9C32,14.8,29.3,11.8,25.8,11.5z M16.8,16.9l3.7,3.7c0.1,0.1,0.3,0.2,0.6,0.2c0,0,0,0,0,0
		c0.2,0,0.4-0.1,0.6-0.2c0.1-0.1,0.2-0.3,0.2-0.6c0-0.2-0.1-0.4-0.2-0.6l-5-5c-0.3-0.3-0.8-0.3-1.1,0l-5,5c-0.1,0.1-0.2,0.3-0.2,0.6
		c0,0.2,0.1,0.4,0.2,0.6c0.3,0.3,0.8,0.3,1.1,0l3.7-3.7v6.8H7.4c-3.2,0-5.8-2.6-5.8-5.8c0-3.2,2.6-5.8,5.8-5.8c0.4,0,0.8,0,1.1,0.1
		c0.2,0,0.5,0,0.6-0.2c0.2-0.1,0.3-0.4,0.3-0.6v-0.1c0-4.1,3.3-7.4,7.4-7.4s7.4,3.3,7.4,7.4c0,0.3,0,0.6,0,0.8c0,0.2,0,0.4,0.2,0.6
		c0.1,0.2,0.4,0.3,0.6,0.3h0.2c2.9,0,5.3,2.4,5.3,5.4c0,2.8-2.2,5.1-5,5.3h0c0,0-0.1,0-0.1,0h-8.6V16.9z"/>
</g>
<g id="圖層_4" class="st0">
	<g class="st1">
		<path d="M30,21.3L23,19c-1.2-0.4-2.6,0-3.5,1l-1.4,1.6c-3.1-2.1-5.7-4.6-7.8-7.8l1.6-1.4c1-0.9,1.4-2.2,1-3.5L10.7,2
			C10.3,0.7,9-0.1,7.6,0l-3,0.4C3.6,0.5,2.7,1,2.1,1.8c-2.2,2.9-2.7,6.8-1.3,11.1C2,16.7,4.5,20.6,8,24c3.4,3.4,7.4,6,11.1,7.2
			c1.6,0.5,3.2,0.8,4.7,0.8c2.4,0,4.6-0.7,6.4-2.1c0.8-0.6,1.3-1.5,1.4-2.5l0.4-3C32.1,23,31.3,21.7,30,21.3L30,21.3z M30.5,24.2
			l-0.4,3c-0.1,0.6-0.4,1.1-0.8,1.5c-3.2,2.4-7,1.9-9.7,1C16,28.6,12.3,26.2,9,23c-3.2-3.2-5.7-7-6.8-10.5c-0.9-2.7-1.4-6.5,1-9.7
			C3.6,2.3,4.2,2,4.8,1.9l3-0.4c0.1,0,0.1,0,0.2,0c0.6,0,1.2,0.4,1.4,1l2.2,6.9c0.2,0.7,0,1.4-0.5,1.8l-1.7,1.5
			c-0.5,0.5-0.6,1.2-0.2,1.8c1.1,1.7,2.4,3.2,3.7,4.6c1.4,1.4,2.9,2.6,4.6,3.7c0.6,0.4,1.4,0.3,1.8-0.2l1.5-1.7
			c0.5-0.5,1.2-0.7,1.8-0.5l6.9,2.2C30.1,22.9,30.5,23.6,30.5,24.2L30.5,24.2z"/>
		<path d="M17.3,9.6c2.8,0,5.1,2.3,5.1,5.1c0,0.4,0.3,0.8,0.8,0.8c0.4,0,0.8-0.3,0.8-0.8c0-1.8-0.7-3.4-1.9-4.7
			c-1.3-1.3-2.9-1.9-4.7-1.9c-0.4,0-0.8,0.3-0.8,0.8C16.5,9.3,16.8,9.6,17.3,9.6L17.3,9.6z"/>
		<path d="M17.3,3.7c6.1,0,11,5,11,11c0,0.4,0.3,0.8,0.8,0.8c0.4,0,0.8-0.3,0.8-0.8c0-1.7-0.3-3.3-1-4.9c-0.6-1.5-1.5-2.8-2.7-4
			c-1.2-1.2-2.5-2.1-4-2.7c-1.6-0.7-3.2-1-4.9-1c-0.4,0-0.8,0.3-0.8,0.8C16.5,3.3,16.8,3.7,17.3,3.7L17.3,3.7z"/>
	</g>
</g>
</svg>
