<?xml version="1.0" encoding="utf-8"?>
<!-- Generator: Adobe Illustrator 26.3.1, SVG Export Plug-In . SVG Version: 6.00 Build 0)  -->
<svg version="1.1" id="圖層_1" xmlns="http://www.w3.org/2000/svg" xmlns:xlink="http://www.w3.org/1999/xlink" x="0px" y="0px"
	 viewBox="0 0 36 32" style="enable-background:new 0 0 36 32;" xml:space="preserve">
<style type="text/css">
	.st0{display:none;}
	.st1{display:inline;}
	.st2{fill:#231815;}
	.st3{fill:#FFFFFF;}
</style>
<g id="圖層_1_00000029730913658918479430000000149369579246475651_" class="st0">
	<g class="st1">
		<path d="M31,9c0-0.1,0-0.1-0.1-0.2c0-0.1-0.1-0.1-0.1-0.2l-8.4-8.4c0,0-0.1-0.1-0.2-0.1C22.1,0.1,22.1,0,22,0c0,0-0.1,0-0.2,0H7.5
			C6.1,0,5,1.1,5,2.5v26.9C5,30.9,6.1,32,7.5,32h21c1.4,0,2.5-1.1,2.5-2.5V9.2l0,0l0,0V9z M23.6,8.4c-0.5,0-0.9-0.4-0.9-0.9V2.7
			l5.6,5.6L23.6,8.4z M23.6,10h5.8v19.5c0,0.5-0.4,0.9-0.9,0.9h-21c-0.5,0-0.9-0.4-0.9-0.9v-27C6.6,2,7,1.6,7.5,1.6h13.6v5.8
			C21.1,8.8,22.2,10,23.6,10z"/>
		<path d="M9,16c0,0.4,0.4,0.8,0.8,0.8h16.4c0.4,0,0.8-0.4,0.8-0.8c0-0.4-0.4-0.8-0.8-0.8H9.8C9.4,15.2,9,15.6,9,16z"/>
		<path d="M26.2,20.4H9.8c-0.4,0-0.8,0.4-0.8,0.8C9,21.6,9.4,22,9.8,22h16.4c0.4,0,0.8-0.4,0.8-0.8C27,20.7,26.6,20.4,26.2,20.4z"/>
		<path d="M26.2,25.5H9.8c-0.4,0-0.8,0.4-0.8,0.8s0.4,0.8,0.8,0.8h16.4c0.4,0,0.8-0.4,0.8-0.8S26.6,25.5,26.2,25.5z"/>
	</g>
</g>
<g id="圖層_2_00000070835032345851488560000010206293692861215381_" class="st0">
	<g class="st1">
		<path class="st2" d="M33.8,6.4l-6.1-6C27.5,0.1,27.3,0,27,0h-0.2l0,0c-0.1,0-0.2,0.1-0.3,0.2L3.9,22.8c-0.2,0.1-0.3,0.3-0.3,0.4
			l-1.5,5.3c-0.3,1.1-0.1,2.1,0.5,2.8C3.1,31.7,3.7,32,4.4,32c0.3,0,0.7-0.1,1-0.2l5.3-1.5c0.1,0,0.3-0.1,0.4-0.2L33.8,7.6
			C34.1,7.3,34.1,6.7,33.8,6.4z M3.8,29l1.4-5.1L27,2.1L31.9,7L10.1,28.7L5,30.1c-0.5,0.1-0.9,0.1-1.1-0.1C3.7,29.9,3.7,29.5,3.8,29
			z"/>
		<path class="st2" d="M33.1,30.2H20.6c-1.6,0-3.1,0-4.4,0h0.3c-0.3,0-0.5,0-0.7,0h-0.1c-0.1,0-0.2,0-0.3,0
			c-0.4,0.1-0.7,0.4-0.7,0.8s0.3,0.8,0.7,0.8c0.1,0,0.2,0,0.3,0s0.1,0,0.2,0h0.2c0.3,0,0.8,0,1.3,0c0.4,0-1.7,0-1.1,0
			c0.9,0,1.9,0,3,0c1.2,0,2.6,0,3.9,0h9.9c0.2,0,0.4-0.1,0.6-0.2c0.2-0.2,0.3-0.4,0.3-0.6C34,30.6,33.6,30.2,33.1,30.2z"/>
	</g>
</g>
<g id="圖層_3">
	<path class="st3" d="M28.9,10.7c0-0.1,0-0.1,0-0.2C28.9,4.8,24.4,0,18.8,0c-5.2,0-9.5,4.2-10,9.6c-0.2,0-0.3,0-0.6,0
		C3.7,9.6,0,13.4,0,18.2s3.7,8.6,8.3,8.6H17V31c0,0.5,0.3,0.9,0.9,0.9c0.4,0,0.9-0.4,0.9-0.9v-4.2h9.9c0.1,0,0.2,0,0.2,0
		c3.9-0.4,7.1-3.9,7.1-8.1C35.9,14.6,32.9,11.1,28.9,10.7z M18.8,17.1l4.1,4.3c0.1,0.1,0.3,0.2,0.7,0.2l0,0c0.2,0,0.4-0.1,0.7-0.2
		c0.1-0.1,0.2-0.4,0.2-0.7c0-0.2-0.1-0.5-0.2-0.7l-5.6-5.8c-0.3-0.4-0.9-0.4-1.2,0L11.9,20c-0.1,0.1-0.2,0.4-0.2,0.7
		c0,0.2,0.1,0.5,0.2,0.7c0.3,0.4,0.9,0.4,1.2,0l4.1-4.3V25h-9c-3.6,0-6.5-3-6.5-6.8s2.9-6.8,6.5-6.8c0.4,0,0.9,0,1.2,0.1
		c0.2,0,0.6,0,0.7-0.2c0.2-0.1,0.3-0.5,0.3-0.7v-0.1c0-4.8,3.7-8.6,8.3-8.6S27,5.8,27,10.5c0,0.4,0,0.7,0,0.9s0,0.5,0.2,0.7
		c0.1,0.2,0.4,0.4,0.7,0.4h0.2c3.3,0,5.9,2.8,5.9,6.3c0,3.3-2.5,6-5.6,6.2l0,0h-0.1h-9.6C18.8,25,18.8,17.1,18.8,17.1z"/>
</g>
<g id="圖層_4" class="st0">
	<g class="st1">
		<path d="M32,21.3L25,19c-1.2-0.4-2.6,0-3.5,1l-1.4,1.6c-3.1-2.1-5.7-4.6-7.8-7.8l1.6-1.4c1-0.9,1.4-2.2,1-3.5L12.7,2
			C12.3,0.7,11-0.1,9.6,0l-3,0.4C5.6,0.5,4.7,1,4.1,1.8C1.9,4.7,1.4,8.6,2.8,12.9C4,16.7,6.5,20.6,10,24c3.4,3.4,7.4,6,11.1,7.2
			c1.6,0.5,3.2,0.8,4.7,0.8c2.4,0,4.6-0.7,6.4-2.1c0.8-0.6,1.3-1.5,1.4-2.5l0.4-3C34.1,23,33.3,21.7,32,21.3L32,21.3z M32.5,24.2
			l-0.4,3c-0.1,0.6-0.4,1.1-0.8,1.5c-3.2,2.4-7,1.9-9.7,1C18,28.6,14.3,26.2,11,23c-3.2-3.2-5.7-7-6.8-10.5C3.3,9.8,2.8,6,5.2,2.8
			c0.4-0.5,1-0.8,1.6-0.9l3-0.4c0.1,0,0.1,0,0.2,0c0.6,0,1.2,0.4,1.4,1l2.2,6.9c0.2,0.7,0,1.4-0.5,1.8l-1.7,1.5
			c-0.5,0.5-0.6,1.2-0.2,1.8c1.1,1.7,2.4,3.2,3.7,4.6s2.9,2.6,4.6,3.7c0.6,0.4,1.4,0.3,1.8-0.2l1.5-1.7c0.5-0.5,1.2-0.7,1.8-0.5
			l6.9,2.2C32.1,22.9,32.5,23.6,32.5,24.2L32.5,24.2z"/>
		<path d="M19.3,9.6c2.8,0,5.1,2.3,5.1,5.1c0,0.4,0.3,0.8,0.8,0.8c0.4,0,0.8-0.3,0.8-0.8c0-1.8-0.7-3.4-1.9-4.7
			c-1.3-1.3-2.9-1.9-4.7-1.9c-0.4,0-0.8,0.3-0.8,0.8C18.5,9.3,18.8,9.6,19.3,9.6L19.3,9.6z"/>
		<path d="M19.3,3.7c6.1,0,11,5,11,11c0,0.4,0.3,0.8,0.8,0.8c0.4,0,0.8-0.3,0.8-0.8c0-1.7-0.3-3.3-1-4.9c-0.6-1.5-1.5-2.8-2.7-4
			s-2.5-2.1-4-2.7c-1.6-0.7-3.2-1-4.9-1c-0.4,0-0.8,0.3-0.8,0.8C18.5,3.3,18.8,3.7,19.3,3.7L19.3,3.7z"/>
	</g>
</g>
</svg>
