<?xml version="1.0" encoding="utf-8"?>
<!-- Generator: Adobe Illustrator 26.4.1, SVG Export Plug-In . SVG Version: 6.00 Build 0)  -->
<svg version="1.1" id="close" xmlns="http://www.w3.org/2000/svg" xmlns:xlink="http://www.w3.org/1999/xlink" x="0px" y="0px"
	 viewBox="0 0 32 32" style="enable-background:new 0 0 32 32;" xml:space="preserve">
<style type="text/css">
	.st0{fill:#FFFFFF;}
</style>
<circle cx="16" cy="16" r="13"/>
<path class="st0" d="M15.3,12.1v5.8l-2-1.6c-0.2-0.1-0.4-0.2-0.6-0.2s-0.4,0.1-0.5,0.3c-0.3,0.3-0.2,0.9,0.1,1.1l3.3,2.7
	c0.3,0.2,0.7,0.2,1,0l3.1-2.4c0.2-0.2,0.3-0.4,0.3-0.6c0-0.2-0.1-0.3-0.2-0.5c-0.1-0.2-0.3-0.3-0.5-0.3c-0.2,0-0.4,0-0.6,0.2
	l-1.8,1.4v-5.8c0-0.4-0.4-0.8-0.8-0.8S15.3,11.7,15.3,12.1z"/>
</svg>
